:FULLY-SPECIFIED
:FORCE-ALL-JOINTS-BE-3DOF
:DEGREES
149
root -2.40951 17.0795 -0.29941 0.550853 11.4557 -1.5255
lfemur -24.656 -1.00932 -25.5584
ltibia 30.8958 0 0
lfoot -6.86641 2.79355 0.0656907
ltoes 5.11947 0 0
rfemur -0.663952 4.76627 20.5179
rtibia 30.0619 0 0
rfoot 5.7527 3.91092 0.408978
rtoes -11.9952 0 0
lowerback 7.52604 0.507591 0.481938
upperback -0.869435 0.878015 2.55692
thorax -5.03784 0.453329 2.28779
lowerneck -15.3381 -3.43797 -9.45831
upperneck 22.5222 -3.42874 4.52385
head 9.94795 -1.86291 2.72339
lclavicle -1.03293e-14 7.83212e-15 -2.15781e-31
lhumerus -39.86 30.5536 66.6609
lradius 16.355 0 0
lwrist -30.1274 0 0
lhand -13.6642 24.2347 0.00501775
lfingers 7.12502 0 0
lthumb 12.4529 53.8436 0.00480705
rclavicle -1.03293e-14 7.83212e-15 -2.15781e-31
rhumerus -38.9191 -16.4739 -74.3111
rradius 35.9286 0 0
rwrist 2.8046 0 0
rhand -17.7337 12.0095 -0.00967805
rfingers 7.12502 0 0
rthumb 8.52682 -17.7853 -0.00725405
150
root -2.35626 17.0856 -0.0931794 0.385143 11.4639 -1.31112
lfemur -23.601 -0.562347 -25.7663
ltibia 31.003 0 0
lfoot -7.20791 2.72633 0.0905181
ltoes 6.13539 0 0
rfemur -1.66114 4.80057 20.1935
rtibia 31.5747 0 0
rfoot 6.51262 4.52524 0.474047
rtoes -10.2022 0 0
lowerback 7.49131 0.548475 0.356127
upperback -0.645708 0.909703 2.51231
thorax -4.77534 0.470828 2.3076
lowerneck -16.7423 -3.62272 -9.12074
upperneck 23.0274 -3.60264 4.33812
head 10.3987 -1.93009 2.57452
lclavicle 1.99778e-14 -6.83816e-15 -1.17313e-30
lhumerus -39.3626 29.8665 67.6132
lradius 16.8282 0 0
lwrist -29.3485 0 0
lhand -13.3932 23.6517 -0.00640286
lfingers 7.12502 0 0
lthumb 12.7141 53.2444 -0.00621302
rclavicle 1.99778e-14 -6.83816e-15 -1.17313e-30
rhumerus -38.8598 -16.5957 -74.3405
rradius 35.5124 0 0
rwrist 2.85746 0 0
rhand -18.0995 11.4454 -0.00687408
rfingers 7.12502 0 0
rthumb 8.17374 -18.3638 -0.00465893
151
root -2.30833 17.0979 0.106782 0.28872 11.4036 -1.27458
lfemur -22.5736 -0.178653 -25.6752
ltibia 31.0473 0 0
lfoot -7.62939 2.38779 0.0934366
ltoes 7.35362 0 0
rfemur -2.84035 5.13039 20.1345
rtibia 33.153 0 0
rfoot 6.76704 4.70765 0.525523
rtoes -9.97924 0 0
lowerback 7.42081 0.606034 0.329614
upperback -0.395176 0.973412 2.51087
thorax -4.47187 0.502324 2.31453
lowerneck -16.5441 -3.6006 -9.11508
upperneck 22.4965 -3.55112 4.20852
head 10.1619 -1.91565 2.52916
lclavicle 5.80053e-14 6.67914e-15 -1.37671e-29
lhumerus -38.4084 28.1238 69.4789
lradius 17.4527 0 0
lwrist -27.0885 0 0
lhand -13.581 24.199 -0.0112175
lfingers 7.12502 0 0
lthumb 12.533 53.8022 -0.0109903
rclavicle 5.80053e-14 6.67914e-15 -1.37671e-29
rhumerus -38.5952 -16.8381 -74.3447
rradius 35.6444 0 0
rwrist 1.17448 0 0
rhand -16.2383 9.25451 0.0128334
rfingers 7.12502 0 0
rthumb 9.97004 -20.4858 0.0129989
152
root -2.26308 17.1058 0.305155 0.34724 11.3759 -1.06189
lfemur -21.5714 0.207159 -25.8278
ltibia 30.9669 0 0
lfoot -8.00831 1.81508 0.0923401
ltoes 8.47024 0 0
rfemur -4.10844 5.58696 19.8709
rtibia 34.7837 0 0
rfoot 6.16758 4.64925 0.545366
rtoes -11.7628 0 0
lowerback 7.29469 0.620228 0.0318952
upperback -0.213465 0.95542 2.51599
thorax -4.21616 0.500649 2.49459
lowerneck -16.1661 -3.52172 -9.38059
upperneck 22.0336 -3.40603 4.23644
head 9.92387 -1.86418 2.59885
lclavicle 1.13615e-13 2.27012e-14 6.70646e-31
lhumerus -37.882 26.966 70.8005
lradius 18.1262 0 0
lwrist -25.5522 0 0
lhand -13.6371 24.7429 -0.0126959
lfingers 7.12502 0 0
lthumb 12.4789 54.3483 -0.0126365
rclavicle 1.13615e-13 2.27012e-14 6.70646e-31
rhumerus -38.3991 -16.7181 -74.43
rradius 34.5868 0 0
rwrist 1.9842 0 0
rhand -17.3099 11.3698 -0.00400766
rfingers 7.12502 0 0
rthumb 8.93583 -18.4108 -0.00218521
153
root -2.22308 17.1076 0.503203 0.501215 11.5597 -0.371166
lfemur -20.4629 0.50374 -26.5414
ltibia 30.7257 0 0
lfoot -8.24254 1.43979 0.104088
ltoes 8.41778 0 0
rfemur -5.27362 5.71062 19.0386
rtibia 36.4014 0 0
rfoot 4.48488 4.13014 0.532974
rtoes -13.1038 0 0
lowerback 7.31661 0.531912 -0.738749
upperback -0.165113 0.760255 2.39331
thorax -4.17866 0.419526 2.82288
lowerneck -16.2689 -3.3959 -9.29189
upperneck 22.0565 -3.20258 4.063
head 9.93056 -1.78301 2.54985
lclavicle 6.42621e-14 -2.42518e-15 1.42148e-30
lhumerus -37.5851 25.6291 72.0238
lradius 18.8144 0 0
lwrist -23.7591 0 0
lhand -13.4734 24.2812 -0.0212157
lfingers 7.12502 0 0
lthumb 12.6366 53.875 -0.0212415
rclavicle 6.42621e-14 -2.42518e-15 1.42148e-30
rhumerus -38.4113 -16.6117 -74.4324
rradius 33.1161 0 0
rwrist 3.90085 0 0
rhand -19.0424 14.8494 -0.0717881
rfingers 7.12502 0 0
rthumb 7.26333 -14.9811 -0.065626
154
root -2.18538 17.1166 0.700753 0.697298 11.8362 0.60856
lfemur -19.1947 0.640207 -27.4944
ltibia 30.3022 0 0
lfoot -8.44193 1.32708 0.117873
ltoes 7.46255 0 0
rfemur -6.38134 5.39723 17.8855
rtibia 37.9562 0 0
rfoot 2.95711 2.99111 0.478249
rtoes -13.471 0 0
lowerback 7.43788 0.45418 -1.72263
upperback -0.123516 0.556248 2.12862
thorax -4.2117 0.334986 3.11693
lowerneck -16.3072 -3.29112 -9.00088
upperneck 22.0146 -3.07753 3.84953
head 9.90353 -1.72454 2.44318
lclavicle -3.18403e-14 -2.3059e-15 5.46956e-31
lhumerus -37.1861 23.864 73.3254
lradius 19.5365 0 0
lwrist -21.6069 0 0
lhand -12.7421 23.5075 -0.0442952
lfingers 7.12502 0 0
lthumb 13.3414 53.0518 -0.0444272
rclavicle -3.18403e-14 -2.3059e-15 5.46956e-31
rhumerus -38.4599 -16.4031 -74.6615
rradius 33.2742 0 0
rwrist 3.28846 0 0
rhand -18.3274 13.3677 -0.0388467
rfingers 7.12502 0 0
rthumb 7.95362 -16.442 -0.034273
155
root -2.14376 17.1365 0.893589 0.964985 12.1257 1.48387
lfemur -18.0264 0.609069 -28.2814
ltibia 29.8485 0 0
lfoot -8.70388 0.946533 0.12253
ltoes 6.45809 0 0
rfemur -7.56014 5.06823 16.7976
rtibia 39.3791 0 0
rfoot 1.86568 1.95276 0.417078
rtoes -14.3115 0 0
lowerback 7.52864 0.367095 -2.48884
upperback -0.112135 0.357588 1.84269
thorax -4.25927 0.248579 3.2654
lowerneck -16.2492 -3.23946 -8.95323
upperneck 22.045 -3.04388 3.93551
head 9.90189 -1.69512 2.47218
lclavicle -4.60434e-14 2.26616e-15 5.18948e-30
lhumerus -36.7803 21.7696 74.7019
lradius 20.3013 0 0
lwrist -18.9659 0 0
lhand -11.8209 22.7761 -0.0783581
lfingers 7.12502 0 0
lthumb 14.2287 52.2526 -0.0788983
rclavicle -4.60434e-14 2.26616e-15 5.18948e-30
rhumerus -38.4547 -15.9352 -75.1257
rradius 33.5539 0 0
rwrist 2.46533 0 0
rhand -17.8142 11.7646 -0.0232426
rfingers 7.12502 0 0
rthumb 8.44903 -18.0317 -0.0200728
156
root -2.09977 17.1433 1.0807 1.17402 12.4641 2.2817
lfemur -16.7785 0.591298 -29.0444
ltibia 29.4723 0 0
lfoot -9.08293 0.582239 0.120903
ltoes 4.5013 0 0
rfemur -8.65834 4.24029 15.9421
rtibia 40.7147 0 0
rfoot 0.840215 1.46421 0.331963
rtoes -14.5276 0 0
lowerback 7.735 0.239373 -3.18775
upperback -0.123782 0.11085 1.66689
thorax -4.38628 0.141402 3.50021
lowerneck -16.0971 -3.15701 -9.02772
upperneck 22.0541 -2.92175 3.93805
head 9.86927 -1.64602 2.50391
lclavicle 2.08923e-14 2.3059e-15 1.53637e-30
lhumerus -36.405 19.4338 76.4249
lradius 21.063 0 0
lwrist -16.0159 0 0
lhand -11.9167 23.0445 -0.074349
lfingers 7.12502 0 0
lthumb 14.1364 52.5279 -0.0749422
rclavicle 2.08923e-14 2.3059e-15 1.53637e-30
rhumerus -38.3255 -15.421 -75.4474
rradius 33.3702 0 0
rwrist 2.2965 0 0
rhand -17.7026 11.3658 -0.0247057
rfingers 7.12502 0 0
rthumb 8.55691 -18.4295 -0.0220332
